# xmcd CD database file
#
# Track frame offsets:
#	150
#	3015
#	22333
#	42416
#	62799
#	80820
#	100118
#	124451
#	142242
#	161585
#	181251
#	200106
#	217657
#
# Disc length: 3252 seconds
#
# Revision: 1
# Processed by: cddbd v1.5.1PL2 Copyright (c) Steve Scherf et al.
# Submitted via: CDex 1.51
#
DISCID=bd0cb20d
DTITLE=三重野瞳 - Baby Leaf
DYEAR=1900
DGENRE=JPop
TTITLE0=Dearest~Reprise
TTITLE1=Special Radio
TTITLE2=十二月のアップルパイ
TTITLE3=Power Soul, Super Soul
TTITLE4=みつあみ
TTITLE5=紙飛行機
TTITLE6=サバンナへ
TTITLE7=アタリ
TTITLE8=どしゃぶりの天使(2001 ver.)
TTITLE9=電話をするよ
TTITLE10=Mother Boat
TTITLE11=ゆっくり
TTITLE12=Dearest(Nashville Ver.)
EXTD=
EXTT0=
EXTT1=
EXTT2=
EXTT3=
EXTT4=
EXTT5=
EXTT6=
EXTT7=
EXTT8=
EXTT9=
EXTT10=
EXTT11=
EXTT12=
PLAYORDER=
